<mxfile host="65bd71144e">
    <diagram name="第 1 页" id="P7eTNKDxkzyfS5kBPNdI">
        <mxGraphModel dx="2077" dy="816" grid="1" gridSize="10" guides="1" tooltips="1" connect="1" arrows="1" fold="1" page="1" pageScale="1" pageWidth="827" pageHeight="1169" math="0" shadow="0">
            <root>
                <mxCell id="0"/>
                <mxCell id="1" parent="0"/>
                <mxCell id="2qkLxTigW8_xTqNTsMzs-25" value="" style="rounded=0;whiteSpace=wrap;html=1;strokeColor=#0e8088;align=center;verticalAlign=middle;fontFamily=Helvetica;fontSize=16;fillColor=#b0e3e6;" parent="1" vertex="1">
                    <mxGeometry x="375" y="890" width="360" height="660" as="geometry"/>
                </mxCell>
                <mxCell id="2qkLxTigW8_xTqNTsMzs-35" style="edgeStyle=orthogonalEdgeStyle;rounded=0;orthogonalLoop=1;jettySize=auto;html=1;entryX=0.5;entryY=0;entryDx=0;entryDy=0;fontFamily=Helvetica;fontSize=16;fontColor=default;" parent="1" source="2qkLxTigW8_xTqNTsMzs-8" target="2qkLxTigW8_xTqNTsMzs-30" edge="1">
                    <mxGeometry relative="1" as="geometry"/>
                </mxCell>
                <mxCell id="2qkLxTigW8_xTqNTsMzs-36" style="edgeStyle=orthogonalEdgeStyle;rounded=0;orthogonalLoop=1;jettySize=auto;html=1;entryX=0.5;entryY=0;entryDx=0;entryDy=0;fontFamily=Helvetica;fontSize=16;fontColor=default;" parent="1" source="2qkLxTigW8_xTqNTsMzs-8" target="2qkLxTigW8_xTqNTsMzs-31" edge="1">
                    <mxGeometry relative="1" as="geometry"/>
                </mxCell>
                <mxCell id="2qkLxTigW8_xTqNTsMzs-8" value="" style="rounded=0;whiteSpace=wrap;html=1;strokeColor=#666666;align=center;verticalAlign=middle;fontFamily=Helvetica;fontSize=16;fontColor=#333333;fillColor=#f5f5f5;" parent="1" vertex="1">
                    <mxGeometry x="445" y="1030" width="220" height="330" as="geometry"/>
                </mxCell>
                <mxCell id="1pH_1kf8nqB_YHLvuyaA-54" value="" style="rounded=0;whiteSpace=wrap;html=1;fillColor=#f5f5f5;fontColor=#333333;strokeColor=#666666;" parent="1" vertex="1">
                    <mxGeometry x="1340" y="100" width="440" height="270" as="geometry"/>
                </mxCell>
                <mxCell id="1pH_1kf8nqB_YHLvuyaA-53" style="edgeStyle=orthogonalEdgeStyle;rounded=0;orthogonalLoop=1;jettySize=auto;html=1;entryX=0;entryY=0.5;entryDx=0;entryDy=0;" parent="1" source="1pH_1kf8nqB_YHLvuyaA-51" target="1pH_1kf8nqB_YHLvuyaA-35" edge="1">
                    <mxGeometry relative="1" as="geometry"/>
                </mxCell>
                <mxCell id="1pH_1kf8nqB_YHLvuyaA-51" value="" style="rounded=0;whiteSpace=wrap;html=1;fillColor=#f5f5f5;fontColor=#333333;strokeColor=#666666;" parent="1" vertex="1">
                    <mxGeometry x="1050" y="175" width="230" height="150" as="geometry"/>
                </mxCell>
                <mxCell id="1pH_1kf8nqB_YHLvuyaA-48" value="" style="rounded=0;whiteSpace=wrap;html=1;fillColor=#f5f5f5;fontColor=#333333;strokeColor=#666666;" parent="1" vertex="1">
                    <mxGeometry x="160" y="180" width="110" height="150" as="geometry"/>
                </mxCell>
                <mxCell id="1pH_1kf8nqB_YHLvuyaA-46" value="" style="rounded=0;whiteSpace=wrap;html=1;fillColor=#f5f5f5;fontColor=#333333;strokeColor=#666666;" parent="1" vertex="1">
                    <mxGeometry x="300" y="180" width="680" height="150" as="geometry"/>
                </mxCell>
                <mxCell id="1pH_1kf8nqB_YHLvuyaA-6" style="edgeStyle=orthogonalEdgeStyle;rounded=0;orthogonalLoop=1;jettySize=auto;html=1;entryX=0;entryY=0.5;entryDx=0;entryDy=0;" parent="1" source="1pH_1kf8nqB_YHLvuyaA-1" target="1pH_1kf8nqB_YHLvuyaA-5" edge="1">
                    <mxGeometry relative="1" as="geometry"/>
                </mxCell>
                <mxCell id="1pH_1kf8nqB_YHLvuyaA-1" value="创建组件" style="rounded=0;whiteSpace=wrap;html=1;fontSize=16;fillColor=#ffe6cc;strokeColor=#d79b00;" parent="1" vertex="1">
                    <mxGeometry x="40" y="215" width="70" height="40" as="geometry"/>
                </mxCell>
                <mxCell id="1pH_1kf8nqB_YHLvuyaA-30" style="edgeStyle=orthogonalEdgeStyle;rounded=0;orthogonalLoop=1;jettySize=auto;html=1;entryX=0.5;entryY=0;entryDx=0;entryDy=0;" parent="1" source="1pH_1kf8nqB_YHLvuyaA-3" target="1pH_1kf8nqB_YHLvuyaA-27" edge="1">
                    <mxGeometry relative="1" as="geometry"/>
                </mxCell>
                <mxCell id="1pH_1kf8nqB_YHLvuyaA-3" value="DisposableBean" style="rounded=0;whiteSpace=wrap;fontSize=16;fillColor=#d5e8d4;strokeColor=#82b366;" parent="1" vertex="1">
                    <mxGeometry x="1500" y="130" width="130" height="50" as="geometry"/>
                </mxCell>
                <mxCell id="1pH_1kf8nqB_YHLvuyaA-22" style="edgeStyle=orthogonalEdgeStyle;rounded=0;orthogonalLoop=1;jettySize=auto;html=1;" parent="1" source="1pH_1kf8nqB_YHLvuyaA-5" target="1pH_1kf8nqB_YHLvuyaA-21" edge="1">
                    <mxGeometry relative="1" as="geometry"/>
                </mxCell>
                <mxCell id="1pH_1kf8nqB_YHLvuyaA-5" value="构造器" style="rounded=0;whiteSpace=wrap;html=1;fontSize=16;fillColor=#fff2cc;strokeColor=#d6b656;" parent="1" vertex="1">
                    <mxGeometry x="160" y="210" width="100" height="50" as="geometry"/>
                </mxCell>
                <mxCell id="1pH_1kf8nqB_YHLvuyaA-24" style="edgeStyle=orthogonalEdgeStyle;rounded=0;orthogonalLoop=1;jettySize=auto;html=1;entryX=0;entryY=0.5;entryDx=0;entryDy=0;" parent="1" source="1pH_1kf8nqB_YHLvuyaA-7" target="1pH_1kf8nqB_YHLvuyaA-13" edge="1">
                    <mxGeometry relative="1" as="geometry"/>
                </mxCell>
                <mxCell id="1pH_1kf8nqB_YHLvuyaA-7" value="&lt;div&gt;init 指定&lt;/div&gt;&lt;div&gt;初始化方法&lt;/div&gt;" style="rounded=0;whiteSpace=wrap;html=1;fontSize=16;fillColor=#dae8fc;strokeColor=#6c8ebf;" parent="1" vertex="1">
                    <mxGeometry x="820" y="210" width="100" height="50" as="geometry"/>
                </mxCell>
                <mxCell id="1pH_1kf8nqB_YHLvuyaA-10" style="edgeStyle=orthogonalEdgeStyle;rounded=0;orthogonalLoop=1;jettySize=auto;html=1;entryX=0.5;entryY=0;entryDx=0;entryDy=0;" parent="1" source="1pH_1kf8nqB_YHLvuyaA-8" target="1pH_1kf8nqB_YHLvuyaA-7" edge="1">
                    <mxGeometry relative="1" as="geometry"/>
                </mxCell>
                <mxCell id="1pH_1kf8nqB_YHLvuyaA-8" value="@Bean" style="rounded=0;whiteSpace=wrap;html=1;fontSize=16;fillColor=#d5e8d4;strokeColor=#82b366;" parent="1" vertex="1">
                    <mxGeometry x="820" y="115" width="100" height="50" as="geometry"/>
                </mxCell>
                <mxCell id="1pH_1kf8nqB_YHLvuyaA-13" value="运行中" style="rounded=0;whiteSpace=wrap;html=1;fontSize=16;" parent="1" vertex="1">
                    <mxGeometry x="1115" y="210" width="100" height="50" as="geometry"/>
                </mxCell>
                <mxCell id="1pH_1kf8nqB_YHLvuyaA-14" value="容器结束" style="rounded=0;whiteSpace=wrap;html=1;fontSize=16;" parent="1" vertex="1">
                    <mxGeometry x="1790" y="225" width="80" height="50" as="geometry"/>
                </mxCell>
                <mxCell id="1pH_1kf8nqB_YHLvuyaA-18" style="edgeStyle=orthogonalEdgeStyle;rounded=0;orthogonalLoop=1;jettySize=auto;html=1;" parent="1" source="1pH_1kf8nqB_YHLvuyaA-15" target="1pH_1kf8nqB_YHLvuyaA-14" edge="1">
                    <mxGeometry relative="1" as="geometry"/>
                </mxCell>
                <mxCell id="1pH_1kf8nqB_YHLvuyaA-15" value="&lt;div&gt;destory指定&lt;/div&gt;&lt;div&gt;销毁方法&lt;/div&gt;" style="rounded=0;whiteSpace=wrap;html=1;fontSize=16;fillColor=#dae8fc;strokeColor=#6c8ebf;" parent="1" vertex="1">
                    <mxGeometry x="1650" y="225" width="100" height="50" as="geometry"/>
                </mxCell>
                <mxCell id="1pH_1kf8nqB_YHLvuyaA-20" style="edgeStyle=orthogonalEdgeStyle;rounded=0;orthogonalLoop=1;jettySize=auto;html=1;entryX=0.5;entryY=0;entryDx=0;entryDy=0;" parent="1" source="1pH_1kf8nqB_YHLvuyaA-19" target="1pH_1kf8nqB_YHLvuyaA-15" edge="1">
                    <mxGeometry relative="1" as="geometry"/>
                </mxCell>
                <mxCell id="1pH_1kf8nqB_YHLvuyaA-19" value="@Bean" style="rounded=0;whiteSpace=wrap;html=1;fontSize=16;fillColor=#d5e8d4;strokeColor=#82b366;" parent="1" vertex="1">
                    <mxGeometry x="1650" y="130" width="100" height="50" as="geometry"/>
                </mxCell>
                <mxCell id="1pH_1kf8nqB_YHLvuyaA-41" style="edgeStyle=orthogonalEdgeStyle;rounded=0;orthogonalLoop=1;jettySize=auto;html=1;entryX=0;entryY=0.5;entryDx=0;entryDy=0;" parent="1" source="1pH_1kf8nqB_YHLvuyaA-21" target="1pH_1kf8nqB_YHLvuyaA-38" edge="1">
                    <mxGeometry relative="1" as="geometry"/>
                </mxCell>
                <mxCell id="1pH_1kf8nqB_YHLvuyaA-21" value="@Autowired&lt;div&gt;set属性注入&lt;/div&gt;" style="rounded=0;whiteSpace=wrap;html=1;fontSize=16;fillColor=#e1d5e7;strokeColor=#9673a6;" parent="1" vertex="1">
                    <mxGeometry x="314" y="210" width="100" height="50" as="geometry"/>
                </mxCell>
                <mxCell id="1pH_1kf8nqB_YHLvuyaA-29" style="edgeStyle=orthogonalEdgeStyle;rounded=0;orthogonalLoop=1;jettySize=auto;html=1;" parent="1" source="1pH_1kf8nqB_YHLvuyaA-26" target="1pH_1kf8nqB_YHLvuyaA-28" edge="1">
                    <mxGeometry relative="1" as="geometry"/>
                </mxCell>
                <mxCell id="1pH_1kf8nqB_YHLvuyaA-26" value="InitializingBean" style="rounded=0;whiteSpace=wrap;fontSize=16;fillColor=#d5e8d4;strokeColor=#82b366;" parent="1" vertex="1">
                    <mxGeometry x="600" y="115" width="160" height="50" as="geometry"/>
                </mxCell>
                <mxCell id="1pH_1kf8nqB_YHLvuyaA-33" style="edgeStyle=orthogonalEdgeStyle;rounded=0;orthogonalLoop=1;jettySize=auto;html=1;entryX=0;entryY=0.5;entryDx=0;entryDy=0;" parent="1" source="1pH_1kf8nqB_YHLvuyaA-27" target="1pH_1kf8nqB_YHLvuyaA-15" edge="1">
                    <mxGeometry relative="1" as="geometry"/>
                </mxCell>
                <mxCell id="1pH_1kf8nqB_YHLvuyaA-27" value="destroy&#10;销毁" style="rounded=0;whiteSpace=wrap;fontSize=16;fillColor=#e1d5e7;strokeColor=#9673a6;" parent="1" vertex="1">
                    <mxGeometry x="1515" y="225" width="100" height="50" as="geometry"/>
                </mxCell>
                <mxCell id="1pH_1kf8nqB_YHLvuyaA-32" style="edgeStyle=orthogonalEdgeStyle;rounded=0;orthogonalLoop=1;jettySize=auto;html=1;entryX=0;entryY=0.5;entryDx=0;entryDy=0;" parent="1" source="1pH_1kf8nqB_YHLvuyaA-28" target="1pH_1kf8nqB_YHLvuyaA-7" edge="1">
                    <mxGeometry relative="1" as="geometry"/>
                </mxCell>
                <mxCell id="1pH_1kf8nqB_YHLvuyaA-28" value="afterPropertiesSet&#10;属性设置之后" style="rounded=0;whiteSpace=wrap;fontSize=16;fillColor=#e1d5e7;strokeColor=#9673a6;" parent="1" vertex="1">
                    <mxGeometry x="600" y="210" width="160" height="50" as="geometry"/>
                </mxCell>
                <mxCell id="1pH_1kf8nqB_YHLvuyaA-37" style="edgeStyle=orthogonalEdgeStyle;rounded=0;orthogonalLoop=1;jettySize=auto;html=1;entryX=0;entryY=0.5;entryDx=0;entryDy=0;" parent="1" source="1pH_1kf8nqB_YHLvuyaA-35" target="1pH_1kf8nqB_YHLvuyaA-27" edge="1">
                    <mxGeometry relative="1" as="geometry"/>
                </mxCell>
                <mxCell id="1pH_1kf8nqB_YHLvuyaA-35" value="@PreDestroy" style="rounded=0;whiteSpace=wrap;fontSize=16;fillColor=#fff2cc;strokeColor=#d6b656;" parent="1" vertex="1">
                    <mxGeometry x="1370" y="220" width="120" height="60" as="geometry"/>
                </mxCell>
                <mxCell id="1pH_1kf8nqB_YHLvuyaA-40" style="edgeStyle=orthogonalEdgeStyle;rounded=0;orthogonalLoop=1;jettySize=auto;html=1;entryX=0;entryY=0.5;entryDx=0;entryDy=0;" parent="1" source="1pH_1kf8nqB_YHLvuyaA-38" target="1pH_1kf8nqB_YHLvuyaA-28" edge="1">
                    <mxGeometry relative="1" as="geometry"/>
                </mxCell>
                <mxCell id="1pH_1kf8nqB_YHLvuyaA-38" value="@PostConstruct" style="rounded=0;whiteSpace=wrap;fontSize=16;fillColor=#fff2cc;strokeColor=#d6b656;" parent="1" vertex="1">
                    <mxGeometry x="440" y="215" width="120" height="40" as="geometry"/>
                </mxCell>
                <mxCell id="1pH_1kf8nqB_YHLvuyaA-42" value="" style="shape=flexArrow;endArrow=classic;html=1;rounded=0;fillColor=#d80073;strokeColor=#A50040;" parent="1" edge="1">
                    <mxGeometry width="50" height="50" relative="1" as="geometry">
                        <mxPoint x="279.6" y="415" as="sourcePoint"/>
                        <mxPoint x="279.6" y="235" as="targetPoint"/>
                    </mxGeometry>
                </mxCell>
                <mxCell id="1pH_1kf8nqB_YHLvuyaA-43" value="postProcessBeforeInitialization&lt;div style=&quot;font-size: 16px;&quot;&gt;初始化之前后置处理&lt;/div&gt;" style="rounded=0;whiteSpace=wrap;html=1;fontSize=16;fillColor=#d80073;fontColor=#ffffff;strokeColor=#A50040;" parent="1" vertex="1">
                    <mxGeometry x="150" y="410" width="250" height="50" as="geometry"/>
                </mxCell>
                <mxCell id="1pH_1kf8nqB_YHLvuyaA-44" value="&lt;div style=&quot;font-size: 16px;&quot;&gt;postProcessAfterInitialization&lt;/div&gt;&lt;div style=&quot;font-size: 16px;&quot;&gt;初始化之后后置处理&lt;/div&gt;" style="rounded=0;whiteSpace=wrap;html=1;fontSize=16;fillColor=#d80073;fontColor=#ffffff;strokeColor=#A50040;" parent="1" vertex="1">
                    <mxGeometry x="890" y="410" width="250" height="50" as="geometry"/>
                </mxCell>
                <mxCell id="1pH_1kf8nqB_YHLvuyaA-45" value="" style="shape=flexArrow;endArrow=classic;html=1;rounded=0;fillColor=#d80073;strokeColor=#A50040;" parent="1" edge="1">
                    <mxGeometry width="50" height="50" relative="1" as="geometry">
                        <mxPoint x="1020" y="410" as="sourcePoint"/>
                        <mxPoint x="1020" y="230" as="targetPoint"/>
                    </mxGeometry>
                </mxCell>
                <mxCell id="1pH_1kf8nqB_YHLvuyaA-47" value="初始化周期" style="rounded=0;whiteSpace=wrap;html=1;fontSize=16;" parent="1" vertex="1">
                    <mxGeometry x="610" y="290" width="120" height="40" as="geometry"/>
                </mxCell>
                <mxCell id="1pH_1kf8nqB_YHLvuyaA-49" value="创建周期" style="rounded=0;whiteSpace=wrap;html=1;fontSize=16;" parent="1" vertex="1">
                    <mxGeometry x="165" y="290" width="95" height="40" as="geometry"/>
                </mxCell>
                <mxCell id="1pH_1kf8nqB_YHLvuyaA-52" value="运行周期" style="rounded=0;whiteSpace=wrap;html=1;fontSize=16;" parent="1" vertex="1">
                    <mxGeometry x="1105" y="285" width="120" height="40" as="geometry"/>
                </mxCell>
                <mxCell id="1pH_1kf8nqB_YHLvuyaA-55" value="销毁周期" style="rounded=0;whiteSpace=wrap;html=1;fontSize=16;" parent="1" vertex="1">
                    <mxGeometry x="1515" y="330" width="120" height="40" as="geometry"/>
                </mxCell>
                <mxCell id="1pH_1kf8nqB_YHLvuyaA-56" value="@Autowired是如何实现的？&#10;1、专门有一个处理@Autowired注解的AutowiredAnnotationBeanPostProcessor&#10;2、每个Bean创建以后，会调用 BeanPostProcessor的 postProcessBeforeInitialization 方法&#10;3、postProcessBeforeInitialization 里面就会利用反射，得到当前Bean的所有属性，利用反射，得到Bean属性上标注的所有注解，看有没有@Autowired 注解&#10;4、如果有，去容器中找到这个属性对应的组件（按类型，按名字）找到。" style="rounded=0;whiteSpace=wrap;align=left;verticalAlign=top;fontSize=16;" parent="1" vertex="1">
                    <mxGeometry x="520" y="550" width="680" height="150" as="geometry"/>
                </mxCell>
                <mxCell id="1pH_1kf8nqB_YHLvuyaA-57" value="扩展：&#10;1、定义：自定义注解：@UUID&#10;2、标注在任何Bean的String属性上&#10;3、以后获取到的这个Bean的这个属性就是一个随机值" style="rounded=0;whiteSpace=wrap;fontSize=16;align=left;fillColor=#f8cecc;strokeColor=#b85450;" parent="1" vertex="1">
                    <mxGeometry x="40" y="550" width="440" height="95" as="geometry"/>
                </mxCell>
                <mxCell id="2qkLxTigW8_xTqNTsMzs-1" value="" style="endArrow=none;html=1;rounded=0;" parent="1" edge="1">
                    <mxGeometry width="50" height="50" relative="1" as="geometry">
                        <mxPoint x="60" y="750" as="sourcePoint"/>
                        <mxPoint x="1490" y="750" as="targetPoint"/>
                    </mxGeometry>
                </mxCell>
                <mxCell id="2qkLxTigW8_xTqNTsMzs-2" value="&lt;font style=&quot;font-size: 48px;&quot;&gt;组件生命周期&lt;/font&gt;" style="text;html=1;align=center;verticalAlign=middle;resizable=0;points=[];autosize=1;strokeColor=none;fillColor=none;" parent="1" vertex="1">
                    <mxGeometry x="140" y="20" width="310" height="70" as="geometry"/>
                </mxCell>
                <mxCell id="2qkLxTigW8_xTqNTsMzs-3" value="&lt;font style=&quot;font-size: 48px;&quot;&gt;多切面执行顺序&lt;/font&gt;" style="text;html=1;align=center;verticalAlign=middle;resizable=0;points=[];autosize=1;strokeColor=none;fillColor=none;" parent="1" vertex="1">
                    <mxGeometry x="820" y="930" width="360" height="70" as="geometry"/>
                </mxCell>
                <mxCell id="2qkLxTigW8_xTqNTsMzs-17" style="edgeStyle=orthogonalEdgeStyle;rounded=0;orthogonalLoop=1;jettySize=auto;html=1;fontFamily=Helvetica;fontSize=16;fontColor=default;" parent="1" source="2qkLxTigW8_xTqNTsMzs-7" target="2qkLxTigW8_xTqNTsMzs-14" edge="1">
                    <mxGeometry relative="1" as="geometry"/>
                </mxCell>
                <mxCell id="2qkLxTigW8_xTqNTsMzs-18" style="edgeStyle=orthogonalEdgeStyle;rounded=0;orthogonalLoop=1;jettySize=auto;html=1;fontFamily=Helvetica;fontSize=16;fontColor=default;" parent="1" source="2qkLxTigW8_xTqNTsMzs-7" target="2qkLxTigW8_xTqNTsMzs-15" edge="1">
                    <mxGeometry relative="1" as="geometry"/>
                </mxCell>
                <mxCell id="2qkLxTigW8_xTqNTsMzs-7" value="目标方法" style="rounded=0;whiteSpace=wrap;html=1;strokeColor=#d6b656;align=center;verticalAlign=middle;fontFamily=Helvetica;fontSize=16;fillColor=#fff2cc;" parent="1" vertex="1">
                    <mxGeometry x="500" y="1150" width="110" height="40" as="geometry"/>
                </mxCell>
                <mxCell id="2qkLxTigW8_xTqNTsMzs-39" style="edgeStyle=orthogonalEdgeStyle;rounded=0;orthogonalLoop=1;jettySize=auto;html=1;entryX=0.5;entryY=0;entryDx=0;entryDy=0;fontFamily=Helvetica;fontSize=16;fontColor=default;" parent="1" source="2qkLxTigW8_xTqNTsMzs-9" target="2qkLxTigW8_xTqNTsMzs-26" edge="1">
                    <mxGeometry relative="1" as="geometry"/>
                </mxCell>
                <mxCell id="2qkLxTigW8_xTqNTsMzs-9" value="执行" style="ellipse;whiteSpace=wrap;html=1;aspect=fixed;rounded=0;strokeColor=default;align=center;verticalAlign=middle;fontFamily=Helvetica;fontSize=16;fontColor=default;fillColor=default;" parent="1" vertex="1">
                    <mxGeometry x="165" y="820" width="80" height="80" as="geometry"/>
                </mxCell>
                <mxCell id="2qkLxTigW8_xTqNTsMzs-13" style="edgeStyle=orthogonalEdgeStyle;rounded=0;orthogonalLoop=1;jettySize=auto;html=1;fontFamily=Helvetica;fontSize=16;fontColor=default;" parent="1" source="2qkLxTigW8_xTqNTsMzs-12" target="2qkLxTigW8_xTqNTsMzs-7" edge="1">
                    <mxGeometry relative="1" as="geometry"/>
                </mxCell>
                <mxCell id="2qkLxTigW8_xTqNTsMzs-12" value="前置" style="rounded=0;whiteSpace=wrap;html=1;strokeColor=#82b366;align=center;verticalAlign=middle;fontFamily=Helvetica;fontSize=16;fillColor=#d5e8d4;" parent="1" vertex="1">
                    <mxGeometry x="502.5" y="1080" width="105" height="40" as="geometry"/>
                </mxCell>
                <mxCell id="2qkLxTigW8_xTqNTsMzs-19" style="edgeStyle=orthogonalEdgeStyle;rounded=0;orthogonalLoop=1;jettySize=auto;html=1;fontFamily=Helvetica;fontSize=16;fontColor=default;" parent="1" source="2qkLxTigW8_xTqNTsMzs-14" target="2qkLxTigW8_xTqNTsMzs-16" edge="1">
                    <mxGeometry relative="1" as="geometry"/>
                </mxCell>
                <mxCell id="2qkLxTigW8_xTqNTsMzs-14" value="返回" style="rounded=0;whiteSpace=wrap;html=1;strokeColor=#82b366;align=center;verticalAlign=middle;fontFamily=Helvetica;fontSize=16;fillColor=#d5e8d4;" parent="1" vertex="1">
                    <mxGeometry x="465" y="1220" width="70" height="40" as="geometry"/>
                </mxCell>
                <mxCell id="2qkLxTigW8_xTqNTsMzs-20" style="edgeStyle=orthogonalEdgeStyle;rounded=0;orthogonalLoop=1;jettySize=auto;html=1;entryX=0.5;entryY=0;entryDx=0;entryDy=0;fontFamily=Helvetica;fontSize=16;fontColor=default;" parent="1" source="2qkLxTigW8_xTqNTsMzs-15" target="2qkLxTigW8_xTqNTsMzs-16" edge="1">
                    <mxGeometry relative="1" as="geometry"/>
                </mxCell>
                <mxCell id="2qkLxTigW8_xTqNTsMzs-15" value="异常" style="rounded=0;whiteSpace=wrap;html=1;strokeColor=#82b366;align=center;verticalAlign=middle;fontFamily=Helvetica;fontSize=16;fillColor=#d5e8d4;" parent="1" vertex="1">
                    <mxGeometry x="585" y="1220" width="70" height="40" as="geometry"/>
                </mxCell>
                <mxCell id="2qkLxTigW8_xTqNTsMzs-16" value="后置" style="rounded=0;whiteSpace=wrap;html=1;strokeColor=#82b366;align=center;verticalAlign=middle;fontFamily=Helvetica;fontSize=16;fillColor=#d5e8d4;" parent="1" vertex="1">
                    <mxGeometry x="520" y="1300" width="70" height="40" as="geometry"/>
                </mxCell>
                <mxCell id="2qkLxTigW8_xTqNTsMzs-24" style="edgeStyle=orthogonalEdgeStyle;rounded=0;orthogonalLoop=1;jettySize=auto;html=1;entryX=0.5;entryY=0;entryDx=0;entryDy=0;fontFamily=Helvetica;fontSize=16;fontColor=default;" parent="1" source="2qkLxTigW8_xTqNTsMzs-21" target="2qkLxTigW8_xTqNTsMzs-12" edge="1">
                    <mxGeometry relative="1" as="geometry"/>
                </mxCell>
                <mxCell id="2qkLxTigW8_xTqNTsMzs-21" value="代理对象" style="rounded=0;whiteSpace=wrap;html=1;strokeColor=#B20000;align=center;verticalAlign=middle;fontFamily=Helvetica;fontSize=16;fontColor=#ffffff;fillColor=#e51400;" parent="1" vertex="1">
                    <mxGeometry x="495" y="1020" width="120" height="30" as="geometry"/>
                </mxCell>
                <mxCell id="2qkLxTigW8_xTqNTsMzs-28" style="edgeStyle=orthogonalEdgeStyle;rounded=0;orthogonalLoop=1;jettySize=auto;html=1;fontFamily=Helvetica;fontSize=16;fontColor=default;" parent="1" source="2qkLxTigW8_xTqNTsMzs-26" target="2qkLxTigW8_xTqNTsMzs-27" edge="1">
                    <mxGeometry relative="1" as="geometry"/>
                </mxCell>
                <mxCell id="2qkLxTigW8_xTqNTsMzs-26" value="代理对象" style="rounded=0;whiteSpace=wrap;html=1;strokeColor=#3700CC;align=center;verticalAlign=middle;fontFamily=Helvetica;fontSize=16;fontColor=#ffffff;fillColor=#6a00ff;" parent="1" vertex="1">
                    <mxGeometry x="495" y="880" width="120" height="30" as="geometry"/>
                </mxCell>
                <mxCell id="2qkLxTigW8_xTqNTsMzs-29" style="edgeStyle=orthogonalEdgeStyle;rounded=0;orthogonalLoop=1;jettySize=auto;html=1;fontFamily=Helvetica;fontSize=16;fontColor=default;" parent="1" source="2qkLxTigW8_xTqNTsMzs-27" target="2qkLxTigW8_xTqNTsMzs-21" edge="1">
                    <mxGeometry relative="1" as="geometry"/>
                </mxCell>
                <mxCell id="2qkLxTigW8_xTqNTsMzs-27" value="前置" style="rounded=0;whiteSpace=wrap;html=1;strokeColor=#b46504;align=center;verticalAlign=middle;fontFamily=Helvetica;fontSize=16;fillColor=#fad7ac;" parent="1" vertex="1">
                    <mxGeometry x="500" y="940" width="110" height="30" as="geometry"/>
                </mxCell>
                <mxCell id="2qkLxTigW8_xTqNTsMzs-37" style="edgeStyle=orthogonalEdgeStyle;rounded=0;orthogonalLoop=1;jettySize=auto;html=1;fontFamily=Helvetica;fontSize=16;fontColor=default;" parent="1" source="2qkLxTigW8_xTqNTsMzs-30" target="2qkLxTigW8_xTqNTsMzs-33" edge="1">
                    <mxGeometry relative="1" as="geometry"/>
                </mxCell>
                <mxCell id="2qkLxTigW8_xTqNTsMzs-30" value="返回" style="rounded=0;whiteSpace=wrap;html=1;strokeColor=#b46504;align=center;verticalAlign=middle;fontFamily=Helvetica;fontSize=16;fillColor=#fad7ac;" parent="1" vertex="1">
                    <mxGeometry x="425" y="1410" width="110" height="30" as="geometry"/>
                </mxCell>
                <mxCell id="2qkLxTigW8_xTqNTsMzs-38" style="edgeStyle=orthogonalEdgeStyle;rounded=0;orthogonalLoop=1;jettySize=auto;html=1;entryX=0.5;entryY=0;entryDx=0;entryDy=0;fontFamily=Helvetica;fontSize=16;fontColor=default;" parent="1" source="2qkLxTigW8_xTqNTsMzs-31" target="2qkLxTigW8_xTqNTsMzs-33" edge="1">
                    <mxGeometry relative="1" as="geometry"/>
                </mxCell>
                <mxCell id="2qkLxTigW8_xTqNTsMzs-31" value="异常" style="rounded=0;whiteSpace=wrap;html=1;strokeColor=#b46504;align=center;verticalAlign=middle;fontFamily=Helvetica;fontSize=16;fillColor=#fad7ac;" parent="1" vertex="1">
                    <mxGeometry x="595" y="1410" width="110" height="30" as="geometry"/>
                </mxCell>
                <mxCell id="2qkLxTigW8_xTqNTsMzs-33" value="后置" style="rounded=0;whiteSpace=wrap;html=1;strokeColor=#b46504;align=center;verticalAlign=middle;fontFamily=Helvetica;fontSize=16;fillColor=#fad7ac;" parent="1" vertex="1">
                    <mxGeometry x="515" y="1490" width="110" height="30" as="geometry"/>
                </mxCell>
                <mxCell id="2qkLxTigW8_xTqNTsMzs-40" value="" style="shape=image;verticalLabelPosition=bottom;labelBackgroundColor=default;verticalAlign=top;aspect=fixed;imageAspect=0;image=data:image/png,iVBORw0KGgoAAAANSUhEUgAAAcgAAADaCAIAAACtqkWZAAAgAElEQVR4Ae19bYxd1ZXlVSmyhbCwbGTEh2xkg2yIFMYRTfiQsU0PiA4BhmamQzNB4I6SdPjIVEI3mEEBy5NMSKD5iBNwaKCnIZpAExw040wcEioEwbRDDCGh07EHCDGMgXFD7LRt/AHGb/TqVK23au9zzrvvvvfs96pW/Sivs/ba++yz7r3bz+VXVUVNH3JADsgBOdBRB4qOVlMxOSAH5IAcqGmw6iaQA3JADnTYAQ3WDhuqcnJADsgBDVbdA3JADsiBDjvQ4cFaFB0u2OHjNivXs/2nGovyRbmPZmYoLgfkQEUHys7B6KPq94w+515Wq9WiBVNktEI3SPRfphPWpE7km+QsYC/zDHrjUFOSBSnMBYXlgBxo34HqgzW6t3l0MTgAolmB5NyMrKsh7oFxtEMIAsASHXoGdWBIAEjJAF/NM6n6Zrvym2b6UUgOyIGUAxUHa7Kc+1IAP/yMfYV81Ou7wXAPjMNehglLkABozDMc4mEH3gDWNMUml5eZTlgmLAfkQEccqDJYMxv7B5gZxqZIJmSU3Vj6mRX+aW/2Mk2GJUhfBCFTJyxZHxVUJrlyBleur0Q5IAfyDnR+sOJJDhvzcGGMKPRRkO++41HTIS8Zc/PoISpA1AM+r48yw8pWdwl1fBbXF5YDcqCzDrQ8WKPb85NvBPxIMw4yMAD8UpFJU7Yby3AKrswNMObmwQOggmcQQgW/qdGwIYxRHMAk8kUx2Ci1lANyoLMOdGawoif/kDPDOKSAAYjODtTvKsD0wS7Rrnw0yJDOAOIogDIaBRltAyQA9AG0ypt0LeWAHKjsQA8NVkwZTASAksfbteX1Tfyxedt7JTOH3/6Fmc77BswMSoI0GvAoiBQDcGTDmyVkAYQodgHIZ3ERo9RSDsiBzjrQrcGKpx0gOmUQBWAZk2WOPTQ4ncdHsXDFxjJpw5qwF38OqZ5BSbRnNIaH3gN060PMoGDUHI6mssrwrBGWA3KgHQdaHqypxzg0EaKsSWHW87xgzLllDvn2+ieH+GPdxp1l0kZfrvLWnJdqA68fg4BlCHEdgzFVOdFowpIFwB6YXK5vsFFqKQfkQGcd6PxgxQPv5xSHwjHARJ98RDt75ky16I5REqdDFAChzEZBg1OXV2IXD0wRCEryRqalHJADlR2oMlhTT6wfKEZplqznEDBA5eO1muh3DIznufmwi9GYpekEIzUAEzVLLsU4ui9yzRa8hEZADsiBbjhQcbD6x9s35zUZhkPAAL54lxizIy8Zh90NE5ZMMuaGecZ1dbDypsCpriAQkANyoE0Hqg/W/PPJ0YCZQdN+xBgGyv0DuEnGYXfD+KVh8O99bt4csPxgDcV5C89gx+gunuTGhOWAHOiUA2UHa0v78cMfEj2T58tEW2qppBijqkzDRmOWJXcsI0NlAGR5BiEBOSAHDpQDXRmsB+ow2lcOyAE50AsOaLD2wlVQD3JADowrBzRYx9Xl1GHkgBzoBQc0WHvhKqgHOSAHxpUDGqzj6nLqMHJADvSCAxqsvXAV1IMckAPjygEN1nF1OXUYOSAHesEBDdZeuArqQQ7IgXHlgAbruLqcOowckAO94IAGay9cBfUgB+TAuHJAg3VcXU4dRg7IgV5wQIO1F66CepADcmBcOaDBOq4upw4jB+RALzjQ4cE6wX/YUh8df/eWNzbv2NsLt2Cqh6iZUTJVoSW+pcpe7JnyuzfNbSoov1ebyj3/+v8av67z9yV/81Gbe7aV/t72zY2G39qxr61iLSSXHaz+R3lGL3aUjLYTLZgioxW6QaYaKHmuMrLoFi2dpf0KtQ0rTp1cDMwafGJXSzvXxa3uHtV70vcRNTNK+txWGS7L2NRBKAN8ij8s0oPYLE0F/7sqvKAjTNM+a7Xab24+CbJJn/1BR/btapFNd5+NhouLHtrhNmtECTlVy0T1wRrdim8R6rMBo1mB5NyMrKuhVA8p3jRTXtZwZBiZOvmlyW226fPL5hVTrvrRmJqvfufjc6YevuCrz707hi65aLGBkaq+T89wA9FolOSsCtjX9AzKhhB/DqFMSlOByfX2Rhm01Cngd/GVhwfrn3zl8frv7Hzin/9lrOC9TT+8fsHwL0r+d/ebUG3P79Z8Zcni4w6bctAhM+ef+7m/featTr14HK68aN5hU6Ye9aHT/+y6h/7pD1x512vPDv9+0Qc/d0IRHazR1wpjz1VlVXGwprYyt4j5y9ZHuU4+ysru4VQPnvd3YYbxDRuxF2SYFnNjgzVTvVyoxR7qRaMeZnZrVZ8plQmZg/Ayn2WinOg7zx8/quf6TQUsroybHmH0FeuS1e/5TbauW3Hh0QPFEX904uyisIN1y2OfnVMURyy64ivfuOv2L150wpTioFNu+dUeX6VlZvtTVx9XfGDWWYNfu/Ou26/70+MOKg5ecMc/+/42rliYHKx+trbchkuoMlhdkQbh7wBmGDdyhlEmZJRdXabaSPGmmZKykMX3samTX7aY2JXBau7FfMM4r5FF7eLTBYws6AEQah80rekbQ3ucyxhdmdzAQwkAvQFNBUZfbclNpioMv2KNDNbN377woGL66X+9+tVX7zvbDdbXvnVWUfzRTZikv//+J48spv3l/2p/stb/pT9w2u0bRibpvk33nzulmPGfHneTtclgrXA/pywKfOcHKy7PyAZFYwt/f0CcAvnuOx71HfpTZDZNpUdT+MhRQYpsmrjt198ePOfDM6cfeuyiT937/NPLj6cvBTz/pXmN/CmDQ7TJ+z9bOrs46OKHtxH3yjcWFcWZ92wiahQ2ytAlHg1G/vTmeAZpCHkQNOCR0irg/jPYlA378mfzajTaGJPAHmCvTD8hBGUHAW+aKpsarBv/7orPPfxi/T+z3owM1ie+MKOYt+z5RtE9jy75QLHgjlcaTEW07o4Lzr7s715qZA8P0LPvfrPBBNTzg9U2PLzOXBLcPeb+C3UQBWAZk9F9O06mdkzxpoGSMmTBNzBlQJOs7Y9fMauYNPucL9x818rbrjn3jHM/+kEarG89+8j9wx/LL5hRjB2stb1PXTOrmLJk9Tvo4o36S40z7nwNxFjQpBMnHktEvjgAAZwMABsZAH07AHuhiGdCCLwBWPLdm6oGsQdIMQBKw3d2CW8zZVODde/e0XeYxAbrj66aUpx08/+hup6hYDvwFzfOKyZd8oh7v0LzwRquXTChnQ5CbuPlZL5WGdOb3lX+/gADwEWYzLfXqSiO6UF0Cy8zTDQLJMRgyoB81s5HlwwU8774zMg/s/ZuuPWUARqs2GDdsjl2sNbe/enVRxTTrnxs94jqrQfOGygWrvgtkgzId8J3KpQZwMVx6T2ADCEwFYApgiUAajLjMRiAaGL09vYpyA2gqcDoqy1xaTLpqcHaSMkP1vd2bNv5fq1W69Jg3fb44OzikE88sqXRzwiawIMV1xW3EYCzKU7s2vJ64z1rmzZt2rzNfaklngg2tWOKR2I1gCO3lJ7PevnrpxfFxasaf2WvvfaosoO1tmfoqsOKIz//k+Db1ocumlR85PYXk93lOzFp3kPPIAUhAIQ6CLh4OAsX52hTPoh9iuFZAAzQzl9F3GE1XOZqtjdYX75jwQeKQy79H9u7M1g3r/nLeQNTzljx4uirZ/JhvAxW3CsA/Hc1DowoAMuYREoGDA0Ov9cDN8jCFRsz6lgotWOKNzVKypCFTsGUAfksd+sn/vMq9oq1Vtuz5vJDi6OvXVt/VbFj1aVTihO/tiHdU74Tk+fN8UxIAQ8QnTi+PutN1CxD59iOEw3GEodlgLJBBjEqZwQQA0AMEC2LKAM+EfPlMc6VSXF3l9NmX7Hu2PTLZ9f/y55uvGLd8YubFk8tZl+yalP93nUfPT9YMzcBZiJrUjicHFEAFGHgbIoTb69/cvg9a6Of1m1svG6LZ1iW2+BYig8ajqYwV0NWmVu51UR367c0WGvvfP8zU4u5y5/bV9u15tPTivk3veAbqNY/O4MKmeLmBjDpZhnEnkzVj/JlZhNvwdh0m6rPPNIBOGoKsoYxUso0D3EU4G6M1g8p7u5ylbKDFeoOfylgz8v/7d8fVcz4k2++0Pj/Aew1DJoP1jLHH1szt2r5a6wZ0/3NbcRmybcOnwoygNwJOhpL7RjlQQLwiUJfHDKd8pFNKL/MJ750x4LqXwqov05dveSQ+jzdMzQ4ozjuy79M9pJvw6d5KzzDWSaaX3JiBRzOwolmuxAyZH7J1fLppg7Ehg9LQ/pdKjNlLmi1wRp/V0Dr/6CMH23fm6s/e/zAlFOX/+PWuKDO9sNgzVxaE8oveQyxEhgg7VeHI6kdozxIAO4GJICJlrmPOQWYE33xnd+7zPzn1clF6a+x1vfY/sglBxeLVnz3xrnF3Bue4+9iQQfuG1spEoe+T776PifoOYtxNNcPR1/WM9EssxeyWGw0YWlIJEYbRtRnpap5JRfJRCHLgPx9FRKrDVb7PtYt9fexzrjysfbfx1qr/eHpG049eNKHBh/bnLhVQ+NNBmuZs2es86Eqr1j59vIVwfjLnGE4BAyAmt0GqR2jPEgAbg8kAKLmKnoBlFHQJH37jy+fVUyac87Vt6xcedvS8xefufjYxmDdvG7k3Vb3199uNfns68J7r+7/4frGv6G2Pnzx5IH5808ojrl++GutrokmDTh9aqykDs48MEAob5ZhC0/GeslxZe7tqCZsnWogxfuzcHFkAWSOyYm5E6ZjoQJ/9trUYP3XXz16d/i45bIPFsW/+Ytbh1f/8Ozvh2sMf+fVwBGLrrjpmyvvCN95ddqt/2Tn6tPXziyKuf/lF37bJPPmP/z5jKI48vwb7xu5kYf/+M7/ft1m5AYrH7l9G8PO1QcrX2x7irHfvxiUUb0/kmF85a4yZndemn3NcVgJbFLCElEGUWWK5ERgFg9/g8D8mdOmzz7t0jt//gT/rIB1y+j7A5BcFB+7j95SveXBCycVRTFz6dOR/16lpAbk3T02XkEQ5aMkBkpjy3LflYC98gBl8zK0EQDE3DPjIPCMSUwJAh+NhoZRpyMAJjAwlVODdeNdf8xZo3j+zb8ZKbD7dz/4r5ctmjfj4IOnzTrxvMF7fv62e4E5/KbpqZ/9kZ23poUxyxdumj+6F/05ffDJMarclwIorQFtduvrsoO1pcr+VvBMKJjiy0RbaqmkONVPii9ZdiLLMtZlQt4xIzZLr2/KNB6jcjM66Lls6MF3wgxjzgXOCPyOyDpQYHiw/tnfvzr8tsbO/tjA9x+/clpRXPCAfw9qO4cd/bGBz3zp5NzPCmhni2huVwZrdCeRckAO9LsDw4N15K+kDv/YwJe/fkpRnPw3mXf3VTGv6Y8NrFK0RI4GawmTJJEDcmDYge2v/Gz0zYz+xwa25dHu1Z+aVBx+zVPRd6FWrzz6YwOHu/7VG5GvbVWvncvUYM25o5gckANyoIIDGqwVTFOKHJADciDngAZrzh3F5IAckAMVHNBgrWCaUuSAHJADOQc0WHPuKCYH5IAcqOCABmsF05QiB+SAHMg5oMGac0cxOSAH5EAFBzRYK5imFDkgB+RAzgEN1pw7iskBOSAHKjigwVrBNKXIATkgB3IOaLDm3FFMDsgBOVDBgQ4P1syP6mnaXFdzfXHP+A7LaHyWGDkgBya4A8nByj9ULYqjxvEkKp+FUpwO0oCoJkpyohd4hvUBQ1PhLL6aGDkgByaIA7nBmrEAE8doUryRpZYl073MM2YLL/BM0xQj0FIOyAE5EHXggA3W6GvAFGla9zPRM22mNC1o6mspB+SAHIADnRmsfiBig5KgzCAzGr8pGGwKBgC/XQOMKcu/dcOHUFlADsgBOZByIDdYefR4HK2ISeT1YPKJ0ShI1AcTQIqHzAvAAEAMkAlBIyAH5IAcMA7kBquR8jI6ccLoZFnAUbGRldHwa8lW0319MACpmvgrwQOToqUckANyoD6pUi6kxk3QR6OYO6ZmVOw1SAcwGix9Qc9AHEAQsAwYgFNCD8xwHc+LkQNyQA7AgY4NVp5cjPEyMzq/Gn2435SZ0WPyZgAqB8CDMtoe643Ah5gRlgNyQA4YB3KDNTO2/NTjYcQYg5WBaSIa8luErCgfJbELT1UUQQoAQgagTrRPjgrLATkgB+qDIuWCGTdGZqJYesDDCFFTjTUIeTEGPTQBeCUEGKleAwYAWZmyKbHJ1VIOyIGJ7EBnBiscxNwBMEOTeZ8FxmRl+GhB1gdsZGHJn5umROv4LDFyQA7Iga4M1ugUC16bUKukGbimmlny1TWhsPSfMymZVkeydv/63k+eufD8pWte5zKjuHvR0R30pxyQAz3iQFcGqzmbGWolo6ks8ABcMEqWGcc+0TOmDu9bx2uvP2r4Sw9n373JhroajWwmSg7IgQPpQG6w4muaURDt2gyjsDQkJ/pQyZRoSyD9FtgIwGg8b5iwNCQXqf3hyetPPWL6MRfcs/69MXxYdC8a2UyUHJADB9KB3GDN9JWaL573DMqmQikeiQGkZJ4HA2BKRV+KerFnfB0xckAOyIHkYJU1ckAOyAE5UM0BDdZqvilLDsgBOZB0QIM1aY0CckAOyIFqDmiwVvNNWXJADsiBpAMarElrFJADckAOVHNAg7Wab8qSA3JADiQd0GBNWqOAHJADcqCaAxqs1XxTlhyQA3Ig6YAGa9IaBeSAHJAD1RzQYK3mm7LkgByQA0kHNFiT1iggB+SAHKjmgAZrNd+UJQfkgBxIOqDBmrRGATkgB+RANQc6PFgn+M9/6qPj797yxuYde6vdNJ3NOuCmmQbMsrOHVbUJ4kDZwYofdcrAe1T+puQ6TbHfqEtMppMyO5Y5fnSLMsWhab9CbcOKUycXA7MGn9iFqmVBhd1TtnApsz2Hotjo21ma9syyncrKnbAOVB+sUcv4pmz1eeDcaPH9QKZ6SPGmpfIyY46pk1+a3GabPr9sXjHlqh+Nqfnqdz4+Z+rhC7763Ltj6JKLFhuoV0WTnJvZDvqoJh+NpmRIbsnjTGLz0NDgFFtxkrkUzYtI0YcOVBysqZP6O54Zxr5CPur13WBSPXjePi/ZtW/VyL0gw7SYGxusmerlQi32MGawltnBG85Z+Sgrm2JfyjNNiyQF9cF6/F/ccT99PPD0/03KFRg3DlQZrJnD+5uSGcamSCZklF1dptpI8aaZkrKQxbPJ1MkvW0zsymANL0LRSb5hjpa0CDJsEUAohShXroZ9Kc9Uq1zPqg/WxStfq15AmX3qQOcHK56E4AjfpowRhT4K9rOtvkP0WaaTVHo0l88bFaTIponbfv3twXM+PHP6occu+tS9zz+9/Hj6UsDzX5rXyJ8yOESbvP+zpbOLgy5+eBtxr3xjUVGceU/styM2yhRl7yIzjjMV4CSA+XoC9VgdhgZCPjcDXL10yKwP1oV3bWy3jPL7zoGyj0T+VkOUH4PgBTOMTZRDwAD7zdbUjineNFZShiz4BqYMaJK1/fErZhWTZp/zhZvvWnnbNeeece5HP0iD9a1nHwn/Ll1+wYxi7GCt7X3qmlnFlCWr30EXb3zrrKI4487US64mnQx/adVoohZ5EgzAfhisOHYAvLUJlV3WB+tJX167adOmTZu37tlXNk26vnegM4MVNvh7kRnGIQUMQDeeH7TXFGAKeBDN9TLDRLNAQgymDMhn7Xx0yUAx74vP7Aml9m649ZQBGqzYYN2yOXaw1t796dVHFNOufGz3iOqtB84bKBau+C2SDMh3wmJc3wCw5Mud0YcQsgA4pVVsOsFZGLRa0+rrgxUfH5h23Hk3rP5t62/EsFW17n0Hemiw4gbEYwNQ0sddW16vvzbAx+Ztsd9DnSuW2jHF52qViOHIJbQNST7r5a+fXhQXr9oJ/dprjyo7WGt7hq46rDjy8z8Jvm196KJJxUdufxGlLMh3wmoYaACWLOZpywJgAJNVfokKHqAIQmBaBm+v/+lQ+Hj8B6tW/tUfH1EMnPiVX438nddyNSX0jwPdGqy4KQH4aYE/iAKwjEmkZMDQ4HQ86nWwcEWrX91K7ZjiTTMlZchCt2DKgHzWb24+qSiWrG78lZL4z6vYK9Zabc+ayw8tjr527fu1Wm3HqkunFCd+bUO6p3wnnAdnAPhCszJgyABYzyRyQzNYlgQohbMw8EWq7TJSZ+ujn5heHP2f/9GXFTPOHGh5sOJGjBoRoqxJ4ZCOKEDT5ye6byDfXv/kyOuD8Me6jY3XbZk0CnEbRDfeLcQkMGelMMQA+QcYMg/yie0N1to73//M1GLu8uf21Xat+fS0Yv5NL/gGApNvw2TBFgOwzOj9RtGsIDN1mi5RCgApngk3Z5RHVha89s3FRfHxB3dkRQqOAwc6P1j5tmPMExPGQcAPD5NQ7h+Arc12UR4kgD8jh3xNnNqE8ktkRYu/dMeC6l8KqL9OXb3kkPo83TM0OKM47su/TPaSb8OkhVbRMIB3LCSywJRKpXhZGQYb8XGAy1RIa/atW7nkE3/13Vcbit/Vv07zH/47v++iERQaRw5UGay4F70PJpRf8hPCSmAAv1GXmNSOUR4kAHcFEsBE8fRGBSw2mBN97s7vXWb+8+rkovTXWOs7bX/kkoOLRSu+e+PcYu4NzyX+Jzvfg2kYFzp063suw3BNrw9bRHlO9BgpANB4ptVd1t/ykWLSv135u/oXVmq12r5Nf/+xg4vZ16/FFgLj1YGKgzV6zxmPvCbDcAgYwFTu3jK1Y5QHCcCNgQRA1EwlL4AyCpqkb//x5bOKSXPOufqWlStvW3r+4jMXH9sYrJvXjbzb6v76260mn33dyPcE/XB94z1WWx++ePLA/PknFMdcP/y1VtdEkwZiesxWF4wTfgvD+LQg8HyegfkA0Hum1cFa27zqPx5eTD723L/+m7tW3rr0gnkHFVPP+tuXR+YsNhIYfw5UH6zR2w4GcTRgZlhmHhizhHL/ALM7L00D5jisBDYpYYkog6gyRXIiMIuHv0Fg/sxp02efdumdP3+Cf1bAumX0/QFILoqP3fdmo8KWBy+cVBTFzKVPR378FSU1YCPXITaqkRBDnMpZzAecj3p9hok1YrlMetPQjpf+5/JPLD5h1vTpMz+06M9vXLVhe9MUCcaBA2UHa0tH9fe9Z0LBFF8m2lJLJcWpflJ8ybKS9awDurI9e2n6urGuDNa+dkTNywE5IAfadECDtU0DlS4H5IAcsA5osFpHtJYDckAOtOmABmubBipdDsgBOWAd0GC1jmgtB+SAHGjTAQ3WNg1UuhyQA3LAOqDBah3RWg7IATnQpgMarG0aqHQ5IAfkgHVAg9U6orUckANyoE0HNFjbNFDpckAOyAHrgAardURrOSAH5ECbDmiwtmmg0uWAHJAD1gENVuuI1nJADsiBNh3o8GCd4D8rqI+Ov3vLG5t3RH4qYJv3U6vpUcfsj+1LrFvdS3o5sN8cKDtYo/e27zL6nHgZfmBwtKwnoxW6QfqtwZTZrszxUZBBmeLQcCIwoqXAhhWnTi4GZg0+0frvYsaODEptSiLO9aYxUwZTYUE50BMOVB+s0fbNY2CeH4769HzU67vBpHpI8aaH8jLjjKmTX5rcZpvGfkvrq9/5+Jyphy/46nPv5reKR1tsoF7EpMTrjrJGnFqOyvWnHOg5ByoO1tQ5/EPODGNfIR/1+m4wqR48n3rao7xv1ci8IMO0mBsbrJnq5UIt9tDk19w23dP73zRFAjlwAB2oMlgz7foHgBnGpkgmZJRdXabaSPGmmZKykMWzydTJL1tM7MpgNS9C8w0HcVMNBHzADIZeQA70mgOdH6x4EsJRedYwRhT6KNjPfvkO0WeZTlLp0Vw+b1SQIpsmDv/Oqw/PnH7osYs+de/zTy8/vvHLBGvPf4l+6dWUwSHa5P2fLZ1dHHTxw/zLmV/5xqKiOPOeTSQbhU3bGBXW/2RxCrPe4JaMNblayoH970DLgzXaIj8qRsCPBOMgAwPAr26YNGW7tEztmOJNGyVlyIJvYMqAJlnbH79iVjFp9jlfuPmulbddc+4Z5370gzRY33p25Ne01n9L69jBWtv71DWziilLVjd+Yesb3zqrKM6487VEW006oaxWncnPYiosKAd60YHODFaczD8/zDAOKWAADvhgxbAwAGdkYDR+yWKPofehDJPP2vnokoFi3hef2RMq7N1w6ykDNFhRd92yOXaw1t796dVHFNOufGz3iOqtB84bKBau+C2SDMh3wmK+vsxncColxWdKKSQH9rMDPTRY8ZTiyQEoacquLa9v4o/N294rmTkqS+2Y4kfzKv6JI7eUn896+eunF8XFq3ai5Nprjyo7WGt7hq46rDjy8z8Jvm196KJJxUdufxGlLMh3wuoKBqK4B1xZWA70oAPdGqx4kAD4pSiMQBSAZUwiJQOGBqePeQgXrtiYUcdCqR1TvKlRUoYsdAumDMhn/ebmk4piyerGXymJ/7yKvWKt1fasufzQ4uhr175fq9V2rLp0SnHi1zake8p3wnnBGegNYCVwyswUj0QBOXDAHWh5sOZvazw/OBjrGQcBGIB2Buvb658c4o91Gxuv29BQFnAbLEzx5hTcvMFcDVmYLz6aYZAV7aq9wVp75/ufmVrMXf7cvtquNZ+eVsy/6YVUJ/k2TFZoNdpwlAzu8RaMTXEt5UCvOdD5wcrPCePooIGAHxsm97Nf2NrsG+VBAvgzcsjXxKlNKL9EVrT4S3csqP6lgPrr1NVLDqnP0z1DgzOK4778y2Qv+TY4DX0CRKNMeicRjRZBVEAO9IIDVQZr5s42ofySHx5WAgPsN6dSO0Z5kADcJ0gAEy0/mDgxmJbJ3fm9y8x/Xp1clP4aa32n7Y9ccnCxaMV3b5xbzL3huX1m85ElNxA9IKdBABCNMumPyTsa5chy96/v/eSZC89fuub1WLydaKyeODmQcaDiYI0+IWYbr8kwHAIGMJW7t0ztGOVBAnBjIAEQ5RkRMEJlQJP07T6giLkAAAqHSURBVD++fFYxac45V9+ycuVtS89ffObiYxuDdfO6kXdb3V9/u9Xks6+7P3z8cH3jPVZbH7548sD8+ScUx1w//LVW11OTBsbq+fiMoYqS/JculAGk9LW11x813NnZd8fedttO1HSgpRxo5kD1wZq8v4e35GjAzKAr/4gaBsr9A8zuvDQNmOOwEtikhCWiDKLKFMmJwCwe/gaB+TOnTZ992qV3/vyJZfMag3XdMvr+ACQXxcfue7NRYcuDF04qimLm0qcjP/6KkhqwkTsWlXGppKaxGaExu/3hyetPPWL6MRfcs77xP3cNQTvRRhUhOVDKgbKDtVSxUZF5VKq8+hgu5euM7tCtP1M7pvhu9TFO60ZtjJLj1AAda6I40JXBOlHM0znlgByQAzEHNFhjroiTA3JADrThgAZrG+YpVQ7IATkQc0CDNeaKODkgB+RAGw5osLZhnlLlgByQAzEHNFhjroiTA3JADrThgAZrG+YpVQ7IATkQc0CDNeaKODkgB+RAGw5osLZhnlLlgByQAzEHNFhjroiTA3JADrThgAZrG+b1WGr4Hvoea0rtyIGJ6IAG6/i56hqs4+da6iR97oAGa59fQGpfg5XMEJQDB9KBDg/Wfv9JRf3YP3rWYD2QT5L2lgPkQNnBGh5a85nqjEA85D5kGFMqvzS53Vui/1Q/vDVrUj/xnvUBcxawlzGDrpg0O2KZ2QXbpQqa+lrKATlQzYHqgzW6Hz+x/BgDR7MCybkZWVdD3APjaIcQBIAlOvQM6sCQAJCSAijFiUbMpaA3mrDMR6MpIuWAHCjvQMXBmtrAP7HMMPYV8lGv7wbDPTAOexkmLEECoDHPcCgzIiEDQCkAhAA0WGGFgBw4sA5UGayZjv1jzwxjUyQTMspuLHnGYTz5lgwTliB9EYSiPbM+KoiSmZronH9lA++CXIDoFiLlgBxo04HOD1Y8yaEzfoYZIwp9FLR5vFbTTYe8ZMzNY4uoAFEP+Lw+mmI4i7H/GmuowF0BA6R2ES8H5EA7DrQ8WKObmSecNfwMMw4aMADm1RaX6jYOp+Bdol1BEKLQABgBlh7ANx8KDAQoDsApgeT+IQM4gMZyq8JyYCI40JnBCqf4MQ4kM4xNlEPAAKjfVYAphl24AcbR5pHOAKWiAMpolEnsHgCWZlyC98AoubiwHJADnXWghwYrpkx0KJQ59q4tr2/ij83bYr8HOV4pbMqfg84zyDd9miWnI8UAHNnwfumL+8ZCtZDr9Rqs3lUxcqBLDnRrsOYfbBwmL0MU+jwYGpyOUVUHC1dszCdQNOzFn0PQM0hCe0ZjeOg9QLc+ZJhoTZBBrMFqTNNSDhwoB1oerOZhNn2HKGtSOCQiCtDOC6u31z85xB/rNu40/SWW2B2AhVEy9BlC/BnnSmWhMqZqU2XUk/ymqMm7MIk2BOSAHOi4A50frHh6eRyEvjlkmB55/n2H/hS4BkGMFIBMCnKDBqdmPorL7BWqhXRuxhfMR71ejByQAy05UGWwZh5LE8oveQCxEhigpSO1I/Y7Bsbz3HzY0WjM0nSFkcrT0Gh4yW34yogiBMBFgPNRyATkgByo5kDFwVrmyfSaDMMhYIBqZ6uQZXbkJeNQ2TBhySRjbsZM1ZQMKb4yQgx4RvstDMOJwnJADnTWgeqDNT8OOJqZC+Zp98vOnrZpNd82p3A0+orVCPDvfVOkpWNyTZ/ombAXZ/HuZaJeL0YOyIGWHCg7WFsrWtiyqec8xYft8tGWWiopDjuGaRVN4ZYY+zkbTe8qmWm7q/uquByQA8YBOwFNWMs+ckCDtY8ullod3w5osI6f66vBOn6upU7S5w5osPb5BaT2NVjJDEE5cCAd0GA9kO53dm8N1s76qWpyoLIDGqyVreu5RA3WnrskamiiOqDBOlGvvM4tB+RA1xzQYO2atSosB+TARHVAg3WiXnmdWw7Iga45oMHaNWtVWA7IgYnqgAbrRL3yOrcckANdc0CDtWvWqrAckAMT1QEN1ol65XVuOSAHuuaABmvXrFVhOSAHJqoDHR6s5gc+9Z2rfdd/tOHwnQJNP/fd1VHDcqBfHCg7WKNPqT9k9Dn3Mvyg0mhZT0YrdINE/76HwPCmrEmdiPUBcxawl+UZJAZgxDiF+WGGKd6kaykH5ECbDlQfrNGNzaNrnn+O+vR81Ou7wXAPjMNehsEyACzRmGdQxziDlBRoSW/EqWVqL/FyQA606UDFwZra1Y8SZhj7Cvmo13eD4R4Yh70ME5YgAdCYZzjE8w58CmRKpVKYbzOdSwnLATnQ1IEqgzVT1D/AzDA2RTIho+zGkmdcwOYf0WFT02RYgvRFEIr2zPqogMl8KVamvijB2+GMJlFLOSAHOuJA5wcrHuDQH08ExohCHwUdOWT5IqZDXjLm5lE8KkDUAz6vjxqGxSlsUnjpe+OosByQA511oOXBGt2eH3Uj4EeacZCBAeCXikyast1YhlNwZW6AMTcPHgAVPIMQKvhNjQbKKJ8h+aIYnMlSSA7IgfYd6MxgRR9+lDDDOKSAATjggzXaCXflDxtSzPAqMzGRgpopwF2lNIZPpaR4k66lHJADlR3oocGKKYMnH6Dk8XZteX0Tf2ze9l7JzFot7MWfQ6pnUBLtGQ346DhGeoiWmb9N63BNYPbTYGgE5IAc6IYD3RqsGC4A0emAKADLmCxz+KHB6WMmyMIVG8ukDWvCXvw5pHoGJdGe0Rgeeg/QrQ8ZBlsghYERhyXaMNEUb2RaygE5UNmBlgdr/rHE84+GWM84CMAAtDNY317/5BB/rNu4E31kAXYHYHmUDH2GEH/GuVJZqNx0MkIJT6I1oyTa412AubKwHJADHXeg84OVn3PGmA58BgjwzAcQNIhySldxdMcoieMgCoBQvlU+clNlEPAWSImSmR5SehQUkANyoE0HqgzWzJNpQvklP/ysBAZo85Dl0/2OgfE8Nx/qG41Zmh54quaVvFFUGSVDltkFS9OMlnJADnTWgYqDNfUwc3Nek2E4BAzAZbuKzY68ZBx6MExYMsmY28aAA+CowVyEMWRRkscxlAGk9EampRyQA5UdqD5Y888nRwNmBu1isqQAlPsHcJOMw+6G8UvD4GUjNx89KQsYm4LR3JKaaC7vJSwH5ECnHCg7WFvazzzqlV89+TottVFBHHYMMyiazi0xzpwxWqcaaXYMRaJktfrKkgNyoCMOdGWwdqQzFZEDckAO9KkDGqx9euHUthyQA73rgAZr714bdSYH5ECfOqDB2qcXTm3LATnQuw5osPbutVFnckAO9KkDGqx9euHUthyQA73rgAZr714bdSYH5ECfOqDB2qcXTm3LATnQuw5osPbutVFnckAO9KkDGqx9euHUthyQA73rgAZr714bdSYH5ECfOqDB2qcXTm3LATnQuw5osPbutVFnckAO9KkDGqx9euHUthyQA73rgAZr714bdSYH5ECfOqDB2qcXTm3LATnQuw5osPbutVFnckAO9KkDGqx9euHUthyQA73rgAZr714bdSYH5ECfOqDB2qcXTm3LATnQuw5osPbutVFnckAO9KkDGqx9euHUthyQA73rgAZr714bdSYH5ECfOvD/AXRl2XTEHsXgAAAAAElFTkSuQmCC;" parent="1" vertex="1">
                    <mxGeometry x="840" y="1050" width="456" height="218" as="geometry"/>
                </mxCell>
                <mxCell id="2qkLxTigW8_xTqNTsMzs-41" value="权限" style="text;html=1;align=center;verticalAlign=middle;resizable=0;points=[];autosize=1;strokeColor=none;fillColor=none;fontFamily=Helvetica;fontSize=16;fontColor=default;" parent="1" vertex="1">
                    <mxGeometry x="810" y="1138" width="60" height="30" as="geometry"/>
                </mxCell>
            </root>
        </mxGraphModel>
    </diagram>
</mxfile>